<svg xmlns="http://www.w3.org/2000/svg" width="18" height="16" viewBox="0 0 18 16">
  <path id="Message" d="M15.445,3A4.551,4.551,0,0,1,20,7.545v7.11A4.552,4.552,0,0,1,15.445,19.2H6.554A4.551,4.551,0,0,1,2,14.655V7.545A4.545,4.545,0,0,1,6.554,3Zm1.432,5.886.072-.072a.7.7,0,0,0-.01-.9.757.757,0,0,0-.476-.234.684.684,0,0,0-.5.18L11.9,11.1a1.41,1.41,0,0,1-1.8,0L6.05,7.86a.688.688,0,0,0-.964.963L5.2,8.94l4.1,3.195a2.834,2.834,0,0,0,3.518,0Z" transform="translate(-2 -3)" fill="#adb5d9" fill-rule="evenodd"/>
</svg>
