<svg xmlns="http://www.w3.org/2000/svg" width="20.271" height="14.001" viewBox="0 0 20.271 14.001">
  <path id="Subtraction_1" data-name="Subtraction 1" d="M-7860.994-1735h-12.038a.641.641,0,0,1-.449-.188l-.819-.823-.819.825a.644.644,0,0,1-.447.186h-3.168a1.272,1.272,0,0,1-1.268-1.274v-11.454a1.272,1.272,0,0,1,1.268-1.274h3.168a.629.629,0,0,1,.447.186l.819.825.819-.825a.639.639,0,0,1,.449-.186h12.038a1.271,1.271,0,0,1,1.266,1.274v11.454A1.271,1.271,0,0,1-7860.994-1735Zm-4.436-6.364a1.907,1.907,0,0,0-1.9,1.908,1.907,1.907,0,0,0,1.9,1.908,1.907,1.907,0,0,0,1.9-1.908A1.907,1.907,0,0,0-7865.429-1741.363Zm1.267-5.091a.63.63,0,0,0-.486.228l-6.334,7.636a.634.634,0,0,0-.146.466.631.631,0,0,0,.227.432.623.623,0,0,0,.4.146.636.636,0,0,0,.487-.227l6.334-7.636a.639.639,0,0,0-.079-.9A.636.636,0,0,0-7864.162-1746.454Zm-10.611,7.954v.874h.872v-.874Zm0-2.624v.874h.872v-.874Zm5.543-5.332a1.908,1.908,0,0,0-1.9,1.91,1.907,1.907,0,0,0,1.9,1.908,1.907,1.907,0,0,0,1.9-1.908A1.908,1.908,0,0,0-7869.23-1746.455Zm-5.543,2.705v.874h.872v-.874Zm0-2.626v.876h.872v-.876Zm9.344,7.558a.635.635,0,0,1-.633-.637.635.635,0,0,1,.633-.637.636.636,0,0,1,.635.637A.636.636,0,0,1-7865.429-1738.818Zm-3.8-5.092a.634.634,0,0,1-.633-.635.635.635,0,0,1,.633-.637.635.635,0,0,1,.633.637A.634.634,0,0,1-7869.23-1743.91Z" transform="translate(7880 1749.001)" fill="#01b81a"/>
</svg>
